<svg width="200" height="200" viewBox="0 0 200 200" fill="none" xmlns="http://www.w3.org/2000/svg">
<path d="M41.7025 43.56C41.8625 37 41.3825 31.64 40.2625 27.48C39.1425 23.32 39.1425 19.88 40.2625 17.16C41.5425 14.28 43.4625 12.28 46.0225 11.16C48.7425 10.04 51.8625 9.72 55.3825 10.2C59.0625 10.52 62.6625 11.56 66.1825 13.32C74.6625 17.16 80.5825 22.6 83.9425 29.64C84.7425 33.16 84.4225 37.56 82.9825 42.84C81.7025 47.96 80.1825 53.32 78.4225 58.92C76.6625 64.36 74.9825 69.72 73.3825 75C71.7825 80.12 71.1425 84.44 71.4625 87.96C75.6225 85.4 79.2225 81.56 82.2625 76.44C85.4625 71.32 88.3425 65.88 90.9025 60.12C93.6225 54.2 96.1025 48.36 98.3425 42.6C100.743 36.84 102.983 32.28 105.063 28.92C107.303 25.56 109.063 22.92 110.343 21C111.623 18.92 112.903 17.08 114.183 15.48C116.263 12.76 118.983 10.12 122.343 7.55999C123.303 6.75999 126.183 6.91999 130.983 8.03999C135.943 9 139.543 9.72 141.783 10.2C144.183 10.52 145.783 10.36 146.583 9.71999L149.943 7.32C154.423 5.08 159.703 5.16 165.783 7.55999C171.703 10.12 174.823 14.04 175.143 19.32C174.983 19.48 174.903 19.8 174.903 20.28L175.623 20.52L173.943 21.96C172.823 24.04 171.943 25.48 171.303 26.28C170.823 26.92 169.703 27.96 167.943 29.4C157.063 41.08 144.583 62.76 130.503 94.44C126.983 102.28 123.783 109.32 120.903 115.56C125.223 118.28 128.503 121.8 130.743 126.12C132.983 130.44 132.983 135.16 130.743 140.28C117.463 150.84 110.023 160.76 108.423 170.04C107.623 175.8 106.583 179.88 105.303 182.28C104.183 184.68 102.343 187 99.7825 189.24C91.1425 195.64 80.9825 194.04 69.3025 184.44C60.9825 176.12 60.5825 165.72 68.1025 153.24C70.0225 149.88 71.8625 146.36 73.6225 142.68C76.1825 137.24 80.2625 129.16 85.8625 118.44C72.1025 126.44 59.4625 126.28 47.9425 117.96C39.7825 111.72 36.9025 97.56 39.3025 75.48C40.9025 60.76 41.7025 50.12 41.7025 43.56Z" fill="url(#paint0_linear_8_4)"/>
<defs>
<linearGradient id="paint0_linear_8_4" x1="33" y1="22.5" x2="170" y2="22.5" gradientUnits="userSpaceOnUse">
<stop stop-color="#FE2792"/>
<stop offset="1" stop-color="#FF0132"/>
</linearGradient>
</defs>
</svg>
