<svg width="633" height="149" viewBox="0 0 633 149" fill="none" xmlns="http://www.w3.org/2000/svg">
<path d="M3.20004 65.792C3.28537 62.2934 3.02937 59.4347 2.43204 57.216C1.83471 54.9974 1.83471 53.1627 2.43204 51.712C3.11471 50.176 4.13871 49.1094 5.50404 48.512C6.95471 47.9147 8.61871 47.744 10.496 48C12.4587 48.1707 14.3787 48.7254 16.256 49.664C20.7787 51.712 23.936 54.6134 25.728 58.368C26.1547 60.2454 25.984 62.592 25.216 65.408C24.5334 68.1387 23.7227 70.9974 22.784 73.984C21.8454 76.8854 20.9494 79.744 20.096 82.56C19.2427 85.2907 18.9014 87.5947 19.072 89.472C21.2907 88.1067 23.2107 86.0587 24.832 83.328C26.5387 80.5974 28.0747 77.696 29.44 74.624C30.8907 71.4667 32.2134 68.352 33.408 65.28C34.688 62.208 35.8827 59.776 36.992 57.984C38.1867 56.192 39.1254 54.784 39.808 53.76C40.4907 52.6507 41.1734 51.6694 41.856 50.816C42.9654 49.3654 44.416 47.9574 46.208 46.592C46.72 46.1654 48.256 46.2507 50.816 46.848C53.4614 47.36 55.3814 47.744 56.576 48C57.856 48.1707 58.7094 48.0854 59.136 47.744L60.928 46.464C63.3174 45.2694 66.1334 45.312 69.376 46.592C72.5334 47.9574 74.1974 50.048 74.368 52.864C74.2827 52.9494 74.24 53.12 74.24 53.376L74.624 53.504L73.728 54.272C73.1307 55.3814 72.6614 56.1494 72.32 56.576C72.064 56.9174 71.4667 57.472 70.528 58.24C64.7254 64.4694 58.0694 76.032 50.56 92.928C48.6827 97.1094 46.976 100.864 45.44 104.192C47.744 105.643 49.4934 107.52 50.688 109.824C51.8827 112.128 51.8827 114.645 50.688 117.376C43.6054 123.008 39.6374 128.299 38.784 133.248C38.3574 136.32 37.8027 138.496 37.12 139.776C36.5227 141.056 35.5414 142.293 34.176 143.488C29.568 146.901 24.1494 146.048 17.92 140.928C13.4827 136.491 13.2694 130.944 17.28 124.288C18.304 122.496 19.2854 120.619 20.224 118.656C21.5894 115.755 23.7654 111.445 26.752 105.728C19.4134 109.995 12.672 109.909 6.52804 105.472C2.17604 102.144 0.640041 94.592 1.92004 82.816C2.77337 74.9654 3.20004 69.2907 3.20004 65.792ZM84.392 50.304C86.184 49.024 88.4027 48.7254 91.048 49.408C91.56 49.4934 92.072 49.536 92.584 49.536C94.4614 45.696 97.704 43.6907 102.312 43.52C103.507 43.4347 105.171 43.2214 107.304 42.88C109.437 42.5387 111.997 42.624 114.984 43.136C118.056 43.648 120.744 44.544 123.048 45.824C128.083 48.5547 131.112 52.48 132.136 57.6C134.184 65.1094 133.885 73.3014 131.24 82.176C128.424 91.9894 123.645 99.84 116.904 105.728C113.832 108.459 110.589 110.165 107.176 110.848C103.763 111.616 100.691 112.043 97.96 112.128C95.2294 112.213 92.712 112.213 90.408 112.128C88.1894 112.128 86.0134 111.915 83.88 111.488C79.272 110.549 75.4747 108.373 72.488 104.96C68.9894 101.12 67.496 95.1467 68.008 87.04C68.3494 79.872 70.1414 72.6614 73.384 65.408C76.712 58.0694 80.3814 53.0347 84.392 50.304ZM106.92 76.032C104.787 76.7147 102.781 77.0134 100.904 76.928C99.9654 77.8667 99.112 78.8907 98.344 80C97.6614 81.024 96.7227 82.0054 95.528 82.944C94.3334 83.7974 93.736 84.1387 93.736 83.968C92.2854 86.016 91.0907 88.1494 90.152 90.368C89.2134 92.5014 89.2134 94.6774 90.152 96.896C93.5654 97.2374 96.0827 97.152 97.704 96.64C99.3254 96.128 100.819 95.1467 102.184 93.696C103.635 92.2454 104.744 90.5387 105.512 88.576C107.048 84.9067 107.517 80.7254 106.92 76.032ZM145.117 48.768C147.506 46.464 150.152 45.1414 153.053 44.8C156.04 44.3734 158.642 44.672 160.861 45.696C163.165 46.72 164.829 48.384 165.853 50.688C166.962 52.9067 166.834 55.4667 165.469 58.368C162.568 62.6347 160.264 67.2427 158.557 72.192C156.85 77.1414 155.272 82.1334 153.821 87.168C161.672 82.2187 168.242 74.8374 173.533 65.024C175.069 62.1227 176.733 59.1787 178.525 56.192L180.445 52.608L184.285 46.464C184.797 44.8427 185.693 43.8187 186.973 43.392C188.253 42.88 189.618 42.624 191.069 42.624C192.605 42.624 194.141 42.6667 195.677 42.752C197.213 42.752 198.621 42.3254 199.901 41.472C201.181 40.6187 202.674 40.32 204.381 40.576C206.173 40.7467 207.752 41.3014 209.117 42.24C210.568 43.1787 211.634 44.3307 212.317 45.696C213.085 46.976 213.17 48.256 212.573 49.536C208.989 57.216 204.082 71.5094 197.853 92.416C196.402 97.1094 195.037 101.035 193.757 104.192C191.624 106.837 188.936 108.629 185.693 109.568C182.45 110.507 179.378 110.763 176.477 110.336C173.661 109.995 171.4 109.013 169.693 107.392C167.986 105.856 167.602 103.893 168.541 101.504C166.152 103.467 163.677 105.259 161.117 106.88C158.557 108.501 155.442 109.568 151.773 110.08C148.189 110.592 144.733 110.421 141.405 109.568C138.077 108.8 135.218 107.264 132.829 104.96C130.525 102.656 129.288 99.584 129.117 95.744C128.605 82.2614 133.938 66.6027 145.117 48.768ZM247.318 108.032C243.99 110.763 240.022 112.811 235.414 114.176C230.891 115.627 226.326 116.395 221.718 116.48C217.11 116.565 212.801 116.011 208.79 114.816C204.779 113.621 201.622 111.744 199.318 109.184C196.587 106.283 195.649 103.381 196.502 100.48C196.929 99.2854 197.697 98.3467 198.806 97.664C199.83 96.9814 201.11 96.8107 202.646 97.152C203.67 97.2374 204.395 96.9814 204.822 96.384C205.334 95.7014 205.761 94.976 206.102 94.208C206.443 93.3547 206.827 92.5867 207.254 91.904C207.681 91.136 208.363 90.752 209.302 90.752C224.321 91.1787 232.129 89.856 232.726 86.784C231.702 85.8454 230.422 85.0347 228.886 84.352C227.435 83.6694 225.942 82.9867 224.406 82.304C220.651 80.5974 218.134 78.72 216.854 76.672C215.233 75.8187 213.995 73.7707 213.142 70.528C212.715 69.0774 212.502 67.584 212.502 66.048C212.502 64.512 212.758 63.104 213.27 61.824C213.014 58.496 215.062 54.8267 219.414 50.816C220.609 49.7067 222.102 48.512 223.894 47.232C225.686 45.952 228.374 44.7147 231.958 43.52C235.542 42.3254 239.083 41.472 242.582 40.96C246.166 40.3627 249.366 40.1494 252.182 40.32C255.083 40.4907 257.131 41.1734 258.326 42.368C259.606 43.5627 260.587 45.056 261.27 46.848C262.038 48.64 262.294 50.3894 262.038 52.096C261.355 55.936 258.198 58.5814 252.566 60.032C245.483 61.056 242.07 61.9947 242.326 62.848C242.326 63.0187 242.027 63.232 241.43 63.488C248.001 68.0107 252.566 72.448 255.126 76.8C258.625 82.7734 259.137 89.4294 256.662 96.768C257.089 99.1574 254.955 102.144 250.262 105.728C249.153 106.581 248.171 107.349 247.318 108.032ZM319.236 50.048L319.748 50.176C319.919 50.176 320.004 50.2187 320.004 50.304C322.223 49.4507 324.057 50.0907 325.508 52.224C326.447 53.6747 327.172 55.8934 327.684 58.88C327.855 62.976 327.428 68.6507 326.404 75.904C324.441 90.5814 323.375 99.328 323.204 102.144C323.375 105.131 321.54 107.179 317.7 108.288C314.372 109.312 311.044 109.269 307.716 108.16C304.217 106.965 302.767 105.131 303.364 102.656C302.681 103.936 301.999 104.832 301.316 105.344C300.633 105.941 299.268 106.709 297.22 107.648C295.257 108.672 292.441 109.483 288.772 110.08C285.103 110.763 281.433 110.933 277.764 110.592C274.095 110.336 270.724 109.44 267.652 107.904C264.665 106.453 262.66 104.149 261.636 100.992C259.673 94.848 259.929 87.04 262.404 77.568C264.111 71.3387 267.183 65.8347 271.62 61.056C276.74 55.5947 282.543 51.072 289.028 47.488C293.892 44.8427 298.585 43.264 303.108 42.752C304.644 42.5814 305.967 42.624 307.076 42.88C308.271 43.136 309.508 43.392 310.788 43.648C312.153 43.904 313.433 44.288 314.628 44.8C317.7 46.08 319.236 47.8294 319.236 50.048ZM295.556 83.968C296.153 82.7734 296.623 81.28 296.964 79.488C297.391 77.696 297.945 75.7334 298.628 73.6C291.716 76.416 286.425 79.872 282.756 83.968C278.745 88.4907 279.001 91.6054 283.524 93.312C287.449 94.336 290.308 93.696 292.1 91.392C292.868 90.368 293.551 89.088 294.148 87.552C294.745 86.016 295.471 84.4374 296.324 82.816C296.068 83.2427 295.812 83.6267 295.556 83.968ZM341.909 49.28C342.08 47.6587 343.104 46.336 344.981 45.312C346.858 44.288 348.949 43.776 351.253 43.776C353.557 43.776 355.776 44.3307 357.909 45.44C360.128 46.464 361.621 48.256 362.389 50.816C369.642 44.5014 376.256 42.0694 382.229 43.52C384.277 43.9467 386.026 45.1414 387.477 47.104C391.829 42.9227 396.65 40.192 401.941 38.912C408.597 38.656 413.376 40.192 416.277 43.52C416.704 43.9467 417.13 44.416 417.557 44.928C418.752 46.208 419.434 47.0614 419.605 47.488C421.141 49.8774 421.568 55.3814 420.885 64C419.946 75.1787 417.813 86.4 414.485 97.664C412.693 103.381 411.072 106.325 409.621 106.496C408.768 106.667 407.957 106.667 407.189 106.496C406.506 106.325 405.866 106.197 405.269 106.112C404.757 106.112 404.458 106.624 404.373 107.648C402.666 109.867 400.064 110.976 396.565 110.976C393.152 110.976 390.25 109.909 387.861 107.776C385.216 105.557 384.277 102.955 385.045 99.968C385.898 96.896 386.837 93.7814 387.861 90.624C388.885 87.3814 389.994 84.0534 391.189 80.64C393.237 74.6667 395.498 68.4374 397.973 61.952C396.181 64 393.749 67.8827 390.677 73.6C387.605 79.232 385.685 82.6027 384.917 83.712C383.466 86.6134 382.272 88.9174 381.333 90.624C380.394 92.2454 379.114 93.568 377.493 94.592C375.957 95.5307 374.506 96.128 373.141 96.384C371.861 96.64 370.624 96.6827 369.429 96.512C366.613 96.0854 364.608 94.8907 363.413 92.928C363.157 92.2454 362.901 91.5627 362.645 90.88C362.389 90.1974 362.176 89.2587 362.005 88.064C361.749 85.4187 362.09 81.1094 363.029 75.136L362.773 75.52C363.797 74.496 364.138 74.24 363.797 74.752C360.384 79.616 358.336 82.7307 357.653 84.096C356.97 85.4614 356.245 86.9974 355.477 88.704C354.709 90.3254 353.813 92.2454 352.789 94.464C351.765 96.5974 350.954 98.5174 350.357 100.224C349.76 101.931 349.034 103.595 348.181 105.216C344.341 111.872 337.6 114.56 327.957 113.28C325.909 113.024 324.16 112.512 322.709 111.744C321.258 111.061 320.661 109.995 320.917 108.544C321.6 105.131 323.178 99.456 325.653 91.52C330.517 75.8187 333.418 65.7067 334.357 61.184C334.954 59.648 335.466 58.0694 335.893 56.448C336.405 54.8267 336.917 53.4187 337.429 52.224C338.453 49.408 339.946 48.4267 341.909 49.28ZM386.325 80.896V81.152C386.496 80.8107 386.496 80.7254 386.325 80.896ZM447.97 52.608C452.237 46.208 458.167 42.368 465.762 41.088C468.237 40.6614 471.266 40.3627 474.85 40.192C478.519 40.0214 481.634 40.832 484.194 42.624C486.839 44.416 488.802 46.72 490.082 49.536C492.301 54.5707 492.642 60.7574 491.106 68.096C490.253 72.1067 489.229 76.544 488.034 81.408C486.839 86.1867 485.047 90.9227 482.658 95.616C480.269 100.309 477.154 104.704 473.314 108.8C469.474 112.896 464.482 116.139 458.338 118.528C454.669 119.979 451.426 120.491 448.61 120.064C445.879 119.723 443.831 119.168 442.466 118.4C441.101 117.632 440.162 116.523 439.65 115.072C437.943 119.936 436.322 124.843 434.786 129.792C433.335 134.827 431.373 139.605 428.898 144.128C427.191 145.237 425.101 146.048 422.626 146.56C420.151 147.157 417.719 147.029 415.33 146.176C412.941 145.408 411.234 143.957 410.21 141.824C409.101 139.776 408.546 137.515 408.546 135.04C408.546 131.712 409.357 127.659 410.978 122.88C413.367 115.797 415.33 110.336 416.866 106.496C418.317 102.656 419.255 100.181 419.682 99.072C420.109 97.8774 420.535 96.64 420.962 95.36C422.839 90.4107 424.205 86.4 425.058 83.328C425.997 80.1707 426.85 77.44 427.618 75.136V75.008C428.471 71.2534 429.794 67.2854 431.586 63.104C433.463 58.8374 434.743 56.2347 435.426 55.296C436.877 53.8454 438.37 52.9494 439.906 52.608C441.442 52.2667 443.191 52.0534 445.154 51.968H445.538L447.97 52.608ZM457.698 73.984C456.674 75.776 454.967 77.44 452.578 78.976L451.426 81.664C450.573 83.8827 449.762 86.144 448.994 88.448C448.226 90.752 447.373 93.0134 446.434 95.232C447.287 96.0854 447.927 96.896 448.354 97.664C453.133 93.4827 457.485 87.9787 461.41 81.152C462.946 78.336 463.927 75.52 464.354 72.704C464.866 69.888 464.994 68.096 464.738 67.328C464.482 66.56 464.055 66.176 463.458 66.176C462.946 66.176 462.391 66.3467 461.794 66.688C461.282 66.944 460.855 67.2427 460.514 67.584C460.258 67.84 460.301 67.84 460.642 67.584C459.703 68.6934 459.021 69.6747 458.594 70.528C458.167 71.296 457.869 72.448 457.698 73.984ZM512.34 99.968C511.828 101.76 511.231 103.339 510.548 104.704C509.865 106.069 508.841 107.349 507.476 108.544C506.111 109.739 504.489 110.848 502.612 111.872C500.735 112.981 498.943 113.749 497.236 114.176C493.311 115.029 491.263 113.877 491.092 110.72C490.836 109.867 490.281 109.355 489.428 109.184C488.66 109.099 487.935 108.885 487.252 108.544C485.46 107.776 484.948 105.685 485.716 102.272C487.081 97.5787 488.575 91.904 490.196 85.248C491.817 78.5067 493.908 71.1254 496.468 63.104C502.527 43.648 510.036 26.112 518.996 10.496C519.593 9.72802 520.276 8.74668 521.044 7.55202C521.812 6.27202 522.793 5.12002 523.988 4.09602C526.975 1.36535 530.644 0.725349 534.996 2.17602C534.911 3.28535 535.167 4.30935 535.764 5.24802C536.361 6.10135 537.044 6.99735 537.812 7.93602C539.775 10.1547 540.671 12.16 540.5 13.952C531.455 35.3707 523.305 59.3067 516.052 85.76C515.199 88.832 514.516 91.52 514.004 93.824C513.492 96.128 512.937 98.176 512.34 99.968ZM564.429 86.016C562.808 86.784 561.229 87.3814 559.693 87.808C558.157 88.2347 556.365 88.6614 554.317 89.088C548.941 90.1974 545.058 90.8374 542.669 91.008C542.925 91.8614 544.205 92.8854 546.509 94.08C548.045 94.336 549.709 94.1227 551.501 93.44C553.378 92.672 555.298 91.9894 557.261 91.392C559.309 90.7094 561.272 90.3254 563.149 90.24C565.112 90.1547 566.946 90.88 568.653 92.416C569.336 93.952 569.89 94.848 570.317 95.104C570.744 95.36 571.128 95.488 571.469 95.488C571.81 95.488 572.194 95.616 572.621 95.872C573.048 96.128 573.645 97.1094 574.413 98.816C575.266 100.523 575.053 102.144 573.773 103.68C572.578 105.216 570.701 106.539 568.141 107.648C565.581 108.757 562.594 109.653 559.181 110.336C555.768 111.019 552.354 111.488 548.941 111.744C541.261 112.341 535.416 111.744 531.405 109.952C525.602 107.989 521.848 104.107 520.141 98.304C517.922 90.624 519.16 81.664 523.853 71.424C525.986 66.6454 529.357 61.5254 533.965 56.064C537.976 51.2854 542.456 47.8294 547.405 45.696C553.122 43.2214 559.096 42.0694 565.325 42.24C571.981 42.4107 576.589 45.312 579.149 50.944C580.429 53.9307 580.685 58.112 579.917 63.488C578.552 70.4854 576.76 75.4347 574.541 78.336C572.322 81.152 568.952 83.712 564.429 86.016ZM557.005 65.792C552.482 64.8534 548.941 67.4134 546.381 73.472C545.613 75.0934 545.016 76.8 544.589 78.592C547.49 78.9334 550.562 77.312 553.805 73.728C555 72.2774 555.896 70.8267 556.493 69.376C557.09 67.84 557.261 66.6454 557.005 65.792ZM589.699 51.968C590.894 48.896 592.558 46.592 594.691 45.056C596.91 43.4347 599 42.4534 600.963 42.112C603.011 41.6854 604.675 41.8987 605.955 42.752C607.32 43.6054 607.79 44.928 607.363 46.72C608.984 45.0987 611.331 43.6054 614.403 42.24C617.475 40.8747 619.907 39.936 621.699 39.424C623.491 38.912 625.027 38.656 626.307 38.656C629.123 38.8267 629.934 40.3627 628.739 43.264C630.19 43.52 631.256 44.4587 631.939 46.08C632.622 47.7014 632.707 49.4934 632.195 51.456C631.683 53.4187 630.531 55.3387 628.739 57.216C626.947 59.0934 624.515 60.3734 621.443 61.056C618.456 61.7387 615.939 63.3174 613.891 65.792C611.928 68.1814 610.179 71.168 608.643 74.752C606.083 80.8107 603.779 89.3867 601.731 100.48C601.048 104.491 598.275 107.861 593.411 110.592C588.803 113.237 584.579 114.005 580.739 112.896C576.387 111.701 574.467 108.501 574.979 103.296C575.15 99.6267 576.259 94.7627 578.307 88.704C580.355 82.56 581.934 77.952 583.043 74.88C584.152 71.7227 584.92 69.3334 585.347 67.712L589.699 51.968Z" fill="url(#paint0_linear_1_2)"/>
<defs>
<linearGradient id="paint0_linear_1_2" x1="-1.40796" y1="54.46" x2="627.592" y2="54.46" gradientUnits="userSpaceOnUse">
<stop stop-color="#FE2792"/>
<stop offset="1" stop-color="#FF0132"/>
</linearGradient>
</defs>
</svg>
