<svg width="680" height="149" viewBox="0 0 680 149" fill="none" xmlns="http://www.w3.org/2000/svg">
<path d="M3.20004 65.792C3.28537 62.2934 3.02937 59.4347 2.43204 57.216C1.83471 54.9974 1.83471 53.1627 2.43204 51.712C3.11471 50.176 4.13871 49.1094 5.50404 48.512C6.95471 47.9147 8.61871 47.744 10.496 48C12.4587 48.1707 14.3787 48.7254 16.256 49.664C20.7787 51.712 23.936 54.6134 25.728 58.368C26.1547 60.2454 25.984 62.592 25.216 65.408C24.5334 68.1387 23.7227 70.9974 22.784 73.984C21.8454 76.8854 20.9494 79.744 20.096 82.56C19.2427 85.2907 18.9014 87.5947 19.072 89.472C21.2907 88.1067 23.2107 86.0587 24.832 83.328C26.5387 80.5974 28.0747 77.696 29.44 74.624C30.8907 71.4667 32.2134 68.352 33.408 65.28C34.688 62.208 35.8827 59.776 36.992 57.984C38.1867 56.192 39.1254 54.784 39.808 53.76C40.4907 52.6507 41.1734 51.6694 41.856 50.816C42.9654 49.3654 44.416 47.9574 46.208 46.592C46.72 46.1654 48.256 46.2507 50.816 46.848C53.4614 47.36 55.3814 47.744 56.576 48C57.856 48.1707 58.7094 48.0854 59.136 47.744L60.928 46.464C63.3174 45.2694 66.1334 45.312 69.376 46.592C72.5334 47.9574 74.1974 50.048 74.368 52.864C74.2827 52.9494 74.24 53.12 74.24 53.376L74.624 53.504L73.728 54.272C73.1307 55.3814 72.6614 56.1494 72.32 56.576C72.064 56.9174 71.4667 57.472 70.528 58.24C64.7254 64.4694 58.0694 76.032 50.56 92.928C48.6827 97.1094 46.976 100.864 45.44 104.192C47.744 105.643 49.4934 107.52 50.688 109.824C51.8827 112.128 51.8827 114.645 50.688 117.376C43.6054 123.008 39.6374 128.299 38.784 133.248C38.3574 136.32 37.8027 138.496 37.12 139.776C36.5227 141.056 35.5414 142.293 34.176 143.488C29.568 146.901 24.1494 146.048 17.92 140.928C13.4827 136.491 13.2694 130.944 17.28 124.288C18.304 122.496 19.2854 120.619 20.224 118.656C21.5894 115.755 23.7654 111.445 26.752 105.728C19.4134 109.995 12.672 109.909 6.52804 105.472C2.17604 102.144 0.640041 94.592 1.92004 82.816C2.77337 74.9654 3.20004 69.2907 3.20004 65.792ZM89.512 50.304C91.304 49.024 93.5227 48.7254 96.168 49.408C96.68 49.4934 97.192 49.536 97.704 49.536C99.5814 45.696 102.824 43.6907 107.432 43.52C108.627 43.4347 110.291 43.2214 112.424 42.88C114.557 42.5387 117.117 42.624 120.104 43.136C123.176 43.648 125.864 44.544 128.168 45.824C133.203 48.5547 136.232 52.48 137.256 57.6C139.304 65.1094 139.005 73.3014 136.36 82.176C133.544 91.9894 128.765 99.84 122.024 105.728C118.952 108.459 115.709 110.165 112.296 110.848C108.883 111.616 105.811 112.043 103.08 112.128C100.349 112.213 97.832 112.213 95.528 112.128C93.3094 112.128 91.1334 111.915 89 111.488C84.392 110.549 80.5947 108.373 77.608 104.96C74.1094 101.12 72.616 95.1467 73.128 87.04C73.4694 79.872 75.2614 72.6614 78.504 65.408C81.832 58.0694 85.5014 53.0347 89.512 50.304ZM112.04 76.032C109.907 76.7147 107.901 77.0134 106.024 76.928C105.085 77.8667 104.232 78.8907 103.464 80C102.781 81.024 101.843 82.0054 100.648 82.944C99.4534 83.7974 98.856 84.1387 98.856 83.968C97.4054 86.016 96.2107 88.1494 95.272 90.368C94.3334 92.5014 94.3334 94.6774 95.272 96.896C98.6854 97.2374 101.203 97.152 102.824 96.64C104.445 96.128 105.939 95.1467 107.304 93.696C108.755 92.2454 109.864 90.5387 110.632 88.576C112.168 84.9067 112.637 80.7254 112.04 76.032ZM155.357 48.768C157.746 46.464 160.392 45.1414 163.293 44.8C166.28 44.3734 168.882 44.672 171.101 45.696C173.405 46.72 175.069 48.384 176.093 50.688C177.202 52.9067 177.074 55.4667 175.709 58.368C172.808 62.6347 170.504 67.2427 168.797 72.192C167.09 77.1414 165.512 82.1334 164.061 87.168C171.912 82.2187 178.482 74.8374 183.773 65.024C185.309 62.1227 186.973 59.1787 188.765 56.192L190.685 52.608L194.525 46.464C195.037 44.8427 195.933 43.8187 197.213 43.392C198.493 42.88 199.858 42.624 201.309 42.624C202.845 42.624 204.381 42.6667 205.917 42.752C207.453 42.752 208.861 42.3254 210.141 41.472C211.421 40.6187 212.914 40.32 214.621 40.576C216.413 40.7467 217.992 41.3014 219.357 42.24C220.808 43.1787 221.874 44.3307 222.557 45.696C223.325 46.976 223.41 48.256 222.813 49.536C219.229 57.216 214.322 71.5094 208.093 92.416C206.642 97.1094 205.277 101.035 203.997 104.192C201.864 106.837 199.176 108.629 195.933 109.568C192.69 110.507 189.618 110.763 186.717 110.336C183.901 109.995 181.64 109.013 179.933 107.392C178.226 105.856 177.842 103.893 178.781 101.504C176.392 103.467 173.917 105.259 171.357 106.88C168.797 108.501 165.682 109.568 162.013 110.08C158.429 110.592 154.973 110.421 151.645 109.568C148.317 108.8 145.458 107.264 143.069 104.96C140.765 102.656 139.528 99.584 139.357 95.744C138.845 82.2614 144.178 66.6027 155.357 48.768ZM262.678 108.032C259.35 110.763 255.382 112.811 250.774 114.176C246.251 115.627 241.686 116.395 237.078 116.48C232.47 116.565 228.161 116.011 224.15 114.816C220.139 113.621 216.982 111.744 214.678 109.184C211.947 106.283 211.009 103.381 211.862 100.48C212.289 99.2854 213.057 98.3467 214.166 97.664C215.19 96.9814 216.47 96.8107 218.006 97.152C219.03 97.2374 219.755 96.9814 220.182 96.384C220.694 95.7014 221.121 94.976 221.462 94.208C221.803 93.3547 222.187 92.5867 222.614 91.904C223.041 91.136 223.723 90.752 224.662 90.752C239.681 91.1787 247.489 89.856 248.086 86.784C247.062 85.8454 245.782 85.0347 244.246 84.352C242.795 83.6694 241.302 82.9867 239.766 82.304C236.011 80.5974 233.494 78.72 232.214 76.672C230.593 75.8187 229.355 73.7707 228.502 70.528C228.075 69.0774 227.862 67.584 227.862 66.048C227.862 64.512 228.118 63.104 228.63 61.824C228.374 58.496 230.422 54.8267 234.774 50.816C235.969 49.7067 237.462 48.512 239.254 47.232C241.046 45.952 243.734 44.7147 247.318 43.52C250.902 42.3254 254.443 41.472 257.942 40.96C261.526 40.3627 264.726 40.1494 267.542 40.32C270.443 40.4907 272.491 41.1734 273.686 42.368C274.966 43.5627 275.947 45.056 276.63 46.848C277.398 48.64 277.654 50.3894 277.398 52.096C276.715 55.936 273.558 58.5814 267.926 60.032C260.843 61.056 257.43 61.9947 257.686 62.848C257.686 63.0187 257.387 63.232 256.79 63.488C263.361 68.0107 267.926 72.448 270.486 76.8C273.985 82.7734 274.497 89.4294 272.022 96.768C272.449 99.1574 270.315 102.144 265.622 105.728C264.513 106.581 263.531 107.349 262.678 108.032ZM339.716 50.048L340.228 50.176C340.399 50.176 340.484 50.2187 340.484 50.304C342.703 49.4507 344.537 50.0907 345.988 52.224C346.927 53.6747 347.652 55.8934 348.164 58.88C348.335 62.976 347.908 68.6507 346.884 75.904C344.921 90.5814 343.855 99.328 343.684 102.144C343.855 105.131 342.02 107.179 338.18 108.288C334.852 109.312 331.524 109.269 328.196 108.16C324.697 106.965 323.247 105.131 323.844 102.656C323.161 103.936 322.479 104.832 321.796 105.344C321.113 105.941 319.748 106.709 317.7 107.648C315.737 108.672 312.921 109.483 309.252 110.08C305.583 110.763 301.913 110.933 298.244 110.592C294.575 110.336 291.204 109.44 288.132 107.904C285.145 106.453 283.14 104.149 282.116 100.992C280.153 94.848 280.409 87.04 282.884 77.568C284.591 71.3387 287.663 65.8347 292.1 61.056C297.22 55.5947 303.023 51.072 309.508 47.488C314.372 44.8427 319.065 43.264 323.588 42.752C325.124 42.5814 326.447 42.624 327.556 42.88C328.751 43.136 329.988 43.392 331.268 43.648C332.633 43.904 333.913 44.288 335.108 44.8C338.18 46.08 339.716 47.8294 339.716 50.048ZM316.036 83.968C316.633 82.7734 317.103 81.28 317.444 79.488C317.871 77.696 318.425 75.7334 319.108 73.6C312.196 76.416 306.905 79.872 303.236 83.968C299.225 88.4907 299.481 91.6054 304.004 93.312C307.929 94.336 310.788 93.696 312.58 91.392C313.348 90.368 314.031 89.088 314.628 87.552C315.225 86.016 315.951 84.4374 316.804 82.816C316.548 83.2427 316.292 83.6267 316.036 83.968ZM367.509 49.28C367.68 47.6587 368.704 46.336 370.581 45.312C372.458 44.288 374.549 43.776 376.853 43.776C379.157 43.776 381.376 44.3307 383.509 45.44C385.728 46.464 387.221 48.256 387.989 50.816C395.242 44.5014 401.856 42.0694 407.829 43.52C409.877 43.9467 411.626 45.1414 413.077 47.104C417.429 42.9227 422.25 40.192 427.541 38.912C434.197 38.656 438.976 40.192 441.877 43.52C442.304 43.9467 442.73 44.416 443.157 44.928C444.352 46.208 445.034 47.0614 445.205 47.488C446.741 49.8774 447.168 55.3814 446.485 64C445.546 75.1787 443.413 86.4 440.085 97.664C438.293 103.381 436.672 106.325 435.221 106.496C434.368 106.667 433.557 106.667 432.789 106.496C432.106 106.325 431.466 106.197 430.869 106.112C430.357 106.112 430.058 106.624 429.973 107.648C428.266 109.867 425.664 110.976 422.165 110.976C418.752 110.976 415.85 109.909 413.461 107.776C410.816 105.557 409.877 102.955 410.645 99.968C411.498 96.896 412.437 93.7814 413.461 90.624C414.485 87.3814 415.594 84.0534 416.789 80.64C418.837 74.6667 421.098 68.4374 423.573 61.952C421.781 64 419.349 67.8827 416.277 73.6C413.205 79.232 411.285 82.6027 410.517 83.712C409.066 86.6134 407.872 88.9174 406.933 90.624C405.994 92.2454 404.714 93.568 403.093 94.592C401.557 95.5307 400.106 96.128 398.741 96.384C397.461 96.64 396.224 96.6827 395.029 96.512C392.213 96.0854 390.208 94.8907 389.013 92.928C388.757 92.2454 388.501 91.5627 388.245 90.88C387.989 90.1974 387.776 89.2587 387.605 88.064C387.349 85.4187 387.69 81.1094 388.629 75.136L388.373 75.52C389.397 74.496 389.738 74.24 389.397 74.752C385.984 79.616 383.936 82.7307 383.253 84.096C382.57 85.4614 381.845 86.9974 381.077 88.704C380.309 90.3254 379.413 92.2454 378.389 94.464C377.365 96.5974 376.554 98.5174 375.957 100.224C375.36 101.931 374.634 103.595 373.781 105.216C369.941 111.872 363.2 114.56 353.557 113.28C351.509 113.024 349.76 112.512 348.309 111.744C346.858 111.061 346.261 109.995 346.517 108.544C347.2 105.131 348.778 99.456 351.253 91.52C356.117 75.8187 359.018 65.7067 359.957 61.184C360.554 59.648 361.066 58.0694 361.493 56.448C362.005 54.8267 362.517 53.4187 363.029 52.224C364.053 49.408 365.546 48.4267 367.509 49.28ZM411.925 80.896V81.152C412.096 80.8107 412.096 80.7254 411.925 80.896ZM478.69 52.608C482.957 46.208 488.887 42.368 496.482 41.088C498.957 40.6614 501.986 40.3627 505.57 40.192C509.239 40.0214 512.354 40.832 514.914 42.624C517.559 44.416 519.522 46.72 520.802 49.536C523.021 54.5707 523.362 60.7574 521.826 68.096C520.973 72.1067 519.949 76.544 518.754 81.408C517.559 86.1867 515.767 90.9227 513.378 95.616C510.989 100.309 507.874 104.704 504.034 108.8C500.194 112.896 495.202 116.139 489.058 118.528C485.389 119.979 482.146 120.491 479.33 120.064C476.599 119.723 474.551 119.168 473.186 118.4C471.821 117.632 470.882 116.523 470.37 115.072C468.663 119.936 467.042 124.843 465.506 129.792C464.055 134.827 462.093 139.605 459.618 144.128C457.911 145.237 455.821 146.048 453.346 146.56C450.871 147.157 448.439 147.029 446.05 146.176C443.661 145.408 441.954 143.957 440.93 141.824C439.821 139.776 439.266 137.515 439.266 135.04C439.266 131.712 440.077 127.659 441.698 122.88C444.087 115.797 446.05 110.336 447.586 106.496C449.037 102.656 449.975 100.181 450.402 99.072C450.829 97.8774 451.255 96.64 451.682 95.36C453.559 90.4107 454.925 86.4 455.778 83.328C456.717 80.1707 457.57 77.44 458.338 75.136V75.008C459.191 71.2534 460.514 67.2854 462.306 63.104C464.183 58.8374 465.463 56.2347 466.146 55.296C467.597 53.8454 469.09 52.9494 470.626 52.608C472.162 52.2667 473.911 52.0534 475.874 51.968H476.258L478.69 52.608ZM488.418 73.984C487.394 75.776 485.687 77.44 483.298 78.976L482.146 81.664C481.293 83.8827 480.482 86.144 479.714 88.448C478.946 90.752 478.093 93.0134 477.154 95.232C478.007 96.0854 478.647 96.896 479.074 97.664C483.853 93.4827 488.205 87.9787 492.13 81.152C493.666 78.336 494.647 75.52 495.074 72.704C495.586 69.888 495.714 68.096 495.458 67.328C495.202 66.56 494.775 66.176 494.178 66.176C493.666 66.176 493.111 66.3467 492.514 66.688C492.002 66.944 491.575 67.2427 491.234 67.584C490.978 67.84 491.021 67.84 491.362 67.584C490.423 68.6934 489.741 69.6747 489.314 70.528C488.887 71.296 488.589 72.448 488.418 73.984ZM548.18 99.968C547.668 101.76 547.071 103.339 546.388 104.704C545.705 106.069 544.681 107.349 543.316 108.544C541.951 109.739 540.329 110.848 538.452 111.872C536.575 112.981 534.783 113.749 533.076 114.176C529.151 115.029 527.103 113.877 526.932 110.72C526.676 109.867 526.121 109.355 525.268 109.184C524.5 109.099 523.775 108.885 523.092 108.544C521.3 107.776 520.788 105.685 521.556 102.272C522.921 97.5787 524.415 91.904 526.036 85.248C527.657 78.5067 529.748 71.1254 532.308 63.104C538.367 43.648 545.876 26.112 554.836 10.496C555.433 9.72802 556.116 8.74668 556.884 7.55202C557.652 6.27202 558.633 5.12002 559.828 4.09602C562.815 1.36535 566.484 0.725349 570.836 2.17602C570.751 3.28535 571.007 4.30935 571.604 5.24802C572.201 6.10135 572.884 6.99735 573.652 7.93602C575.615 10.1547 576.511 12.16 576.34 13.952C567.295 35.3707 559.145 59.3067 551.892 85.76C551.039 88.832 550.356 91.52 549.844 93.824C549.332 96.128 548.777 98.176 548.18 99.968ZM605.389 86.016C603.768 86.784 602.189 87.3814 600.653 87.808C599.117 88.2347 597.325 88.6614 595.277 89.088C589.901 90.1974 586.018 90.8374 583.629 91.008C583.885 91.8614 585.165 92.8854 587.469 94.08C589.005 94.336 590.669 94.1227 592.461 93.44C594.338 92.672 596.258 91.9894 598.221 91.392C600.269 90.7094 602.232 90.3254 604.109 90.24C606.072 90.1547 607.906 90.88 609.613 92.416C610.296 93.952 610.85 94.848 611.277 95.104C611.704 95.36 612.088 95.488 612.429 95.488C612.77 95.488 613.154 95.616 613.581 95.872C614.008 96.128 614.605 97.1094 615.373 98.816C616.226 100.523 616.013 102.144 614.733 103.68C613.538 105.216 611.661 106.539 609.101 107.648C606.541 108.757 603.554 109.653 600.141 110.336C596.728 111.019 593.314 111.488 589.901 111.744C582.221 112.341 576.376 111.744 572.365 109.952C566.562 107.989 562.808 104.107 561.101 98.304C558.882 90.624 560.12 81.664 564.813 71.424C566.946 66.6454 570.317 61.5254 574.925 56.064C578.936 51.2854 583.416 47.8294 588.365 45.696C594.082 43.2214 600.056 42.0694 606.285 42.24C612.941 42.4107 617.549 45.312 620.109 50.944C621.389 53.9307 621.645 58.112 620.877 63.488C619.512 70.4854 617.72 75.4347 615.501 78.336C613.282 81.152 609.912 83.712 605.389 86.016ZM597.965 65.792C593.442 64.8534 589.901 67.4134 587.341 73.472C586.573 75.0934 585.976 76.8 585.549 78.592C588.45 78.9334 591.522 77.312 594.765 73.728C595.96 72.2774 596.856 70.8267 597.453 69.376C598.05 67.84 598.221 66.6454 597.965 65.792ZM635.779 51.968C636.974 48.896 638.638 46.592 640.771 45.056C642.99 43.4347 645.08 42.4534 647.043 42.112C649.091 41.6854 650.755 41.8987 652.035 42.752C653.4 43.6054 653.87 44.928 653.443 46.72C655.064 45.0987 657.411 43.6054 660.483 42.24C663.555 40.8747 665.987 39.936 667.779 39.424C669.571 38.912 671.107 38.656 672.387 38.656C675.203 38.8267 676.014 40.3627 674.819 43.264C676.27 43.52 677.336 44.4587 678.019 46.08C678.702 47.7014 678.787 49.4934 678.275 51.456C677.763 53.4187 676.611 55.3387 674.819 57.216C673.027 59.0934 670.595 60.3734 667.523 61.056C664.536 61.7387 662.019 63.3174 659.971 65.792C658.008 68.1814 656.259 71.168 654.723 74.752C652.163 80.8107 649.859 89.3867 647.811 100.48C647.128 104.491 644.355 107.861 639.491 110.592C634.883 113.237 630.659 114.005 626.819 112.896C622.467 111.701 620.547 108.501 621.059 103.296C621.23 99.6267 622.339 94.7627 624.387 88.704C626.435 82.56 628.014 77.952 629.123 74.88C630.232 71.7227 631 69.3334 631.427 67.712L635.779 51.968Z" fill="url(#paint0_linear_1_2)"/>
<defs>
<linearGradient id="paint0_linear_1_2" x1="-1.40796" y1="54.46" x2="673.592" y2="54.46" gradientUnits="userSpaceOnUse">
<stop stop-color="#FE2792"/>
<stop offset="1" stop-color="#FF0132"/>
</linearGradient>
</defs>
</svg>
